<svg xmlns="http://www.w3.org/2000/svg" width="640" height="640" viewBox="0 0 640 640">
  <rect width="640" height="640" fill="#0b1020"/>
  <g transform="translate(80 80)">
    <rect x="120" y="120" width="320" height="320" rx="28" fill="#22c55e" opacity="0.18" stroke="#a7f3d0" stroke-width="10"/>
    <rect x="190" y="190" width="180" height="180" rx="18" fill="#22c55e" opacity="0.25" stroke="#a7f3d0" stroke-width="10"/>
    <text x="280" y="305" text-anchor="middle" font-family="Segoe UI, Arial, sans-serif" font-size="56" font-weight="800" fill="#d1fae5">CPU</text>
    <!-- pins -->
    <g stroke="#a7f3d0" stroke-width="8" opacity="0.7">
      <line x1="160" y1="110" x2="160" y2="60"/><line x1="220" y1="110" x2="220" y2="60"/><line x1="280" y1="110" x2="280" y2="60"/><line x1="340" y1="110" x2="340" y2="60"/><line x1="400" y1="110" x2="400" y2="60"/>
      <line x1="160" y1="450" x2="160" y2="500"/><line x1="220" y1="450" x2="220" y2="500"/><line x1="280" y1="450" x2="280" y2="500"/><line x1="340" y1="450" x2="340" y2="500"/><line x1="400" y1="450" x2="400" y2="500"/>
      <line x1="110" y1="160" x2="60" y2="160"/><line x1="110" y1="220" x2="60" y2="220"/><line x1="110" y1="280" x2="60" y2="280"/><line x1="110" y1="340" x2="60" y2="340"/><line x1="110" y1="400" x2="60" y2="400"/>
      <line x1="450" y1="160" x2="500" y2="160"/><line x1="450" y1="220" x2="500" y2="220"/><line x1="450" y1="280" x2="500" y2="280"/><line x1="450" y1="340" x2="500" y2="340"/><line x1="450" y1="400" x2="500" y2="400"/>
    </g>
  </g>
</svg>

